<?xml version="1.0" encoding="utf-8" standalone="no"?>
<!DOCTYPE svg PUBLIC "-//W3C//DTD SVG 1.1//EN"
  "http://www.w3.org/Graphics/SVG/1.1/DTD/svg11.dtd">
<svg xmlns:xlink="http://www.w3.org/1999/xlink" width="720pt" height="432pt" viewBox="0 0 720 432" xmlns="http://www.w3.org/2000/svg" version="1.1">
 <metadata>
  <rdf:RDF xmlns:dc="http://purl.org/dc/elements/1.1/" xmlns:cc="http://creativecommons.org/ns#" xmlns:rdf="http://www.w3.org/1999/02/22-rdf-syntax-ns#">
   <cc:Work>
    <dc:type rdf:resource="http://purl.org/dc/dcmitype/StillImage"/>
    <dc:date>2026-04-19T22:59:10.321223</dc:date>
    <dc:format>image/svg+xml</dc:format>
    <dc:creator>
     <cc:Agent>
      <dc:title>Matplotlib v3.10.8, https://matplotlib.org/</dc:title>
     </cc:Agent>
    </dc:creator>
   </cc:Work>
  </rdf:RDF>
 </metadata>
 <defs>
  <style type="text/css">*{stroke-linejoin: round; stroke-linecap: butt}</style>
 </defs>
 <g id="figure_1">
  <g id="patch_1">
   <path d="M 0 432 
L 720 432 
L 720 0 
L 0 0 
z
" style="fill: #ffffff"/>
  </g>
  <g id="axes_1">
   <g id="patch_2">
    <path d="M 57.17 390.04 
L 703.977273 390.04 
L 703.977273 26.88 
L 57.17 26.88 
z
" style="fill: #ffffff"/>
   </g>
   <g id="matplotlib.axis_1">
    <g id="xtick_1">
     <g id="line2d_1">
      <path d="M 86.570331 390.04 
L 86.570331 26.88 
" clip-path="url(#pf33c756fb3)" style="fill: none; stroke: #b0b0b0; stroke-opacity: 0.25; stroke-width: 0.8; stroke-linecap: square"/>
     </g>
     <g id="line2d_2">
      <defs>
       <path id="mb4120423d8" d="M 0 0 
L 0 3.5 
" style="stroke: #000000; stroke-width: 0.8"/>
      </defs>
      <g>
       <use xlink:href="#mb4120423d8" x="86.570331" y="390.04" style="stroke: #000000; stroke-width: 0.8"/>
      </g>
     </g>
     <g id="text_1">
      <!-- 0 -->
      <g transform="translate(83.389081 404.638438) scale(0.1 -0.1)">
       <defs>
        <path id="DejaVuSans-30" d="M 2034 4250 
Q 1547 4250 1301 3770 
Q 1056 3291 1056 2328 
Q 1056 1369 1301 889 
Q 1547 409 2034 409 
Q 2525 409 2770 889 
Q 3016 1369 3016 2328 
Q 3016 3291 2770 3770 
Q 2525 4250 2034 4250 
z
M 2034 4750 
Q 2819 4750 3233 4129 
Q 3647 3509 3647 2328 
Q 3647 1150 3233 529 
Q 2819 -91 2034 -91 
Q 1250 -91 836 529 
Q 422 1150 422 2328 
Q 422 3509 836 4129 
Q 1250 4750 2034 4750 
z
" transform="scale(0.015625)"/>
       </defs>
       <use xlink:href="#DejaVuSans-30"/>
      </g>
     </g>
    </g>
    <g id="xtick_2">
     <g id="line2d_3">
      <path d="M 209.071708 390.04 
L 209.071708 26.88 
" clip-path="url(#pf33c756fb3)" style="fill: none; stroke: #b0b0b0; stroke-opacity: 0.25; stroke-width: 0.8; stroke-linecap: square"/>
     </g>
     <g id="line2d_4">
      <g>
       <use xlink:href="#mb4120423d8" x="209.071708" y="390.04" style="stroke: #000000; stroke-width: 0.8"/>
      </g>
     </g>
     <g id="text_2">
      <!-- 50 -->
      <g transform="translate(202.709208 404.638438) scale(0.1 -0.1)">
       <defs>
        <path id="DejaVuSans-35" d="M 691 4666 
L 3169 4666 
L 3169 4134 
L 1269 4134 
L 1269 2991 
Q 1406 3038 1543 3061 
Q 1681 3084 1819 3084 
Q 2600 3084 3056 2656 
Q 3513 2228 3513 1497 
Q 3513 744 3044 326 
Q 2575 -91 1722 -91 
Q 1428 -91 1123 -41 
Q 819 9 494 109 
L 494 744 
Q 775 591 1075 516 
Q 1375 441 1709 441 
Q 2250 441 2565 725 
Q 2881 1009 2881 1497 
Q 2881 1984 2565 2268 
Q 2250 2553 1709 2553 
Q 1456 2553 1204 2497 
Q 953 2441 691 2322 
L 691 4666 
z
" transform="scale(0.015625)"/>
       </defs>
       <use xlink:href="#DejaVuSans-35"/>
       <use xlink:href="#DejaVuSans-30" transform="translate(63.623047 0)"/>
      </g>
     </g>
    </g>
    <g id="xtick_3">
     <g id="line2d_5">
      <path d="M 331.573085 390.04 
L 331.573085 26.88 
" clip-path="url(#pf33c756fb3)" style="fill: none; stroke: #b0b0b0; stroke-opacity: 0.25; stroke-width: 0.8; stroke-linecap: square"/>
     </g>
     <g id="line2d_6">
      <g>
       <use xlink:href="#mb4120423d8" x="331.573085" y="390.04" style="stroke: #000000; stroke-width: 0.8"/>
      </g>
     </g>
     <g id="text_3">
      <!-- 100 -->
      <g transform="translate(322.029335 404.638438) scale(0.1 -0.1)">
       <defs>
        <path id="DejaVuSans-31" d="M 794 531 
L 1825 531 
L 1825 4091 
L 703 3866 
L 703 4441 
L 1819 4666 
L 2450 4666 
L 2450 531 
L 3481 531 
L 3481 0 
L 794 0 
L 794 531 
z
" transform="scale(0.015625)"/>
       </defs>
       <use xlink:href="#DejaVuSans-31"/>
       <use xlink:href="#DejaVuSans-30" transform="translate(63.623047 0)"/>
       <use xlink:href="#DejaVuSans-30" transform="translate(127.246094 0)"/>
      </g>
     </g>
    </g>
    <g id="xtick_4">
     <g id="line2d_7">
      <path d="M 454.074463 390.04 
L 454.074463 26.88 
" clip-path="url(#pf33c756fb3)" style="fill: none; stroke: #b0b0b0; stroke-opacity: 0.25; stroke-width: 0.8; stroke-linecap: square"/>
     </g>
     <g id="line2d_8">
      <g>
       <use xlink:href="#mb4120423d8" x="454.074463" y="390.04" style="stroke: #000000; stroke-width: 0.8"/>
      </g>
     </g>
     <g id="text_4">
      <!-- 150 -->
      <g transform="translate(444.530713 404.638438) scale(0.1 -0.1)">
       <use xlink:href="#DejaVuSans-31"/>
       <use xlink:href="#DejaVuSans-35" transform="translate(63.623047 0)"/>
       <use xlink:href="#DejaVuSans-30" transform="translate(127.246094 0)"/>
      </g>
     </g>
    </g>
    <g id="xtick_5">
     <g id="line2d_9">
      <path d="M 576.57584 390.04 
L 576.57584 26.88 
" clip-path="url(#pf33c756fb3)" style="fill: none; stroke: #b0b0b0; stroke-opacity: 0.25; stroke-width: 0.8; stroke-linecap: square"/>
     </g>
     <g id="line2d_10">
      <g>
       <use xlink:href="#mb4120423d8" x="576.57584" y="390.04" style="stroke: #000000; stroke-width: 0.8"/>
      </g>
     </g>
     <g id="text_5">
      <!-- 200 -->
      <g transform="translate(567.03209 404.638438) scale(0.1 -0.1)">
       <defs>
        <path id="DejaVuSans-32" d="M 1228 531 
L 3431 531 
L 3431 0 
L 469 0 
L 469 531 
Q 828 903 1448 1529 
Q 2069 2156 2228 2338 
Q 2531 2678 2651 2914 
Q 2772 3150 2772 3378 
Q 2772 3750 2511 3984 
Q 2250 4219 1831 4219 
Q 1534 4219 1204 4116 
Q 875 4013 500 3803 
L 500 4441 
Q 881 4594 1212 4672 
Q 1544 4750 1819 4750 
Q 2544 4750 2975 4387 
Q 3406 4025 3406 3419 
Q 3406 3131 3298 2873 
Q 3191 2616 2906 2266 
Q 2828 2175 2409 1742 
Q 1991 1309 1228 531 
z
" transform="scale(0.015625)"/>
       </defs>
       <use xlink:href="#DejaVuSans-32"/>
       <use xlink:href="#DejaVuSans-30" transform="translate(63.623047 0)"/>
       <use xlink:href="#DejaVuSans-30" transform="translate(127.246094 0)"/>
      </g>
     </g>
    </g>
    <g id="xtick_6">
     <g id="line2d_11">
      <path d="M 699.077218 390.04 
L 699.077218 26.88 
" clip-path="url(#pf33c756fb3)" style="fill: none; stroke: #b0b0b0; stroke-opacity: 0.25; stroke-width: 0.8; stroke-linecap: square"/>
     </g>
     <g id="line2d_12">
      <g>
       <use xlink:href="#mb4120423d8" x="699.077218" y="390.04" style="stroke: #000000; stroke-width: 0.8"/>
      </g>
     </g>
     <g id="text_6">
      <!-- 250 -->
      <g transform="translate(689.533468 404.638438) scale(0.1 -0.1)">
       <use xlink:href="#DejaVuSans-32"/>
       <use xlink:href="#DejaVuSans-35" transform="translate(63.623047 0)"/>
       <use xlink:href="#DejaVuSans-30" transform="translate(127.246094 0)"/>
      </g>
     </g>
    </g>
    <g id="text_7">
     <!-- Travel time (minutes) -->
     <g transform="translate(327.098636 418.316562) scale(0.1 -0.1)">
      <defs>
       <path id="DejaVuSans-54" d="M -19 4666 
L 3928 4666 
L 3928 4134 
L 2272 4134 
L 2272 0 
L 1638 0 
L 1638 4134 
L -19 4134 
L -19 4666 
z
" transform="scale(0.015625)"/>
       <path id="DejaVuSans-72" d="M 2631 2963 
Q 2534 3019 2420 3045 
Q 2306 3072 2169 3072 
Q 1681 3072 1420 2755 
Q 1159 2438 1159 1844 
L 1159 0 
L 581 0 
L 581 3500 
L 1159 3500 
L 1159 2956 
Q 1341 3275 1631 3429 
Q 1922 3584 2338 3584 
Q 2397 3584 2469 3576 
Q 2541 3569 2628 3553 
L 2631 2963 
z
" transform="scale(0.015625)"/>
       <path id="DejaVuSans-61" d="M 2194 1759 
Q 1497 1759 1228 1600 
Q 959 1441 959 1056 
Q 959 750 1161 570 
Q 1363 391 1709 391 
Q 2188 391 2477 730 
Q 2766 1069 2766 1631 
L 2766 1759 
L 2194 1759 
z
M 3341 1997 
L 3341 0 
L 2766 0 
L 2766 531 
Q 2569 213 2275 61 
Q 1981 -91 1556 -91 
Q 1019 -91 701 211 
Q 384 513 384 1019 
Q 384 1609 779 1909 
Q 1175 2209 1959 2209 
L 2766 2209 
L 2766 2266 
Q 2766 2663 2505 2880 
Q 2244 3097 1772 3097 
Q 1472 3097 1187 3025 
Q 903 2953 641 2809 
L 641 3341 
Q 956 3463 1253 3523 
Q 1550 3584 1831 3584 
Q 2591 3584 2966 3190 
Q 3341 2797 3341 1997 
z
" transform="scale(0.015625)"/>
       <path id="DejaVuSans-76" d="M 191 3500 
L 800 3500 
L 1894 563 
L 2988 3500 
L 3597 3500 
L 2284 0 
L 1503 0 
L 191 3500 
z
" transform="scale(0.015625)"/>
       <path id="DejaVuSans-65" d="M 3597 1894 
L 3597 1613 
L 953 1613 
Q 991 1019 1311 708 
Q 1631 397 2203 397 
Q 2534 397 2845 478 
Q 3156 559 3463 722 
L 3463 178 
Q 3153 47 2828 -22 
Q 2503 -91 2169 -91 
Q 1331 -91 842 396 
Q 353 884 353 1716 
Q 353 2575 817 3079 
Q 1281 3584 2069 3584 
Q 2775 3584 3186 3129 
Q 3597 2675 3597 1894 
z
M 3022 2063 
Q 3016 2534 2758 2815 
Q 2500 3097 2075 3097 
Q 1594 3097 1305 2825 
Q 1016 2553 972 2059 
L 3022 2063 
z
" transform="scale(0.015625)"/>
       <path id="DejaVuSans-6c" d="M 603 4863 
L 1178 4863 
L 1178 0 
L 603 0 
L 603 4863 
z
" transform="scale(0.015625)"/>
       <path id="DejaVuSans-20" transform="scale(0.015625)"/>
       <path id="DejaVuSans-74" d="M 1172 4494 
L 1172 3500 
L 2356 3500 
L 2356 3053 
L 1172 3053 
L 1172 1153 
Q 1172 725 1289 603 
Q 1406 481 1766 481 
L 2356 481 
L 2356 0 
L 1766 0 
Q 1100 0 847 248 
Q 594 497 594 1153 
L 594 3053 
L 172 3053 
L 172 3500 
L 594 3500 
L 594 4494 
L 1172 4494 
z
" transform="scale(0.015625)"/>
       <path id="DejaVuSans-69" d="M 603 3500 
L 1178 3500 
L 1178 0 
L 603 0 
L 603 3500 
z
M 603 4863 
L 1178 4863 
L 1178 4134 
L 603 4134 
L 603 4863 
z
" transform="scale(0.015625)"/>
       <path id="DejaVuSans-6d" d="M 3328 2828 
Q 3544 3216 3844 3400 
Q 4144 3584 4550 3584 
Q 5097 3584 5394 3201 
Q 5691 2819 5691 2113 
L 5691 0 
L 5113 0 
L 5113 2094 
Q 5113 2597 4934 2840 
Q 4756 3084 4391 3084 
Q 3944 3084 3684 2787 
Q 3425 2491 3425 1978 
L 3425 0 
L 2847 0 
L 2847 2094 
Q 2847 2600 2669 2842 
Q 2491 3084 2119 3084 
Q 1678 3084 1418 2786 
Q 1159 2488 1159 1978 
L 1159 0 
L 581 0 
L 581 3500 
L 1159 3500 
L 1159 2956 
Q 1356 3278 1631 3431 
Q 1906 3584 2284 3584 
Q 2666 3584 2933 3390 
Q 3200 3197 3328 2828 
z
" transform="scale(0.015625)"/>
       <path id="DejaVuSans-28" d="M 1984 4856 
Q 1566 4138 1362 3434 
Q 1159 2731 1159 2009 
Q 1159 1288 1364 580 
Q 1569 -128 1984 -844 
L 1484 -844 
Q 1016 -109 783 600 
Q 550 1309 550 2009 
Q 550 2706 781 3412 
Q 1013 4119 1484 4856 
L 1984 4856 
z
" transform="scale(0.015625)"/>
       <path id="DejaVuSans-6e" d="M 3513 2113 
L 3513 0 
L 2938 0 
L 2938 2094 
Q 2938 2591 2744 2837 
Q 2550 3084 2163 3084 
Q 1697 3084 1428 2787 
Q 1159 2491 1159 1978 
L 1159 0 
L 581 0 
L 581 3500 
L 1159 3500 
L 1159 2956 
Q 1366 3272 1645 3428 
Q 1925 3584 2291 3584 
Q 2894 3584 3203 3211 
Q 3513 2838 3513 2113 
z
" transform="scale(0.015625)"/>
       <path id="DejaVuSans-75" d="M 544 1381 
L 544 3500 
L 1119 3500 
L 1119 1403 
Q 1119 906 1312 657 
Q 1506 409 1894 409 
Q 2359 409 2629 706 
Q 2900 1003 2900 1516 
L 2900 3500 
L 3475 3500 
L 3475 0 
L 2900 0 
L 2900 538 
Q 2691 219 2414 64 
Q 2138 -91 1772 -91 
Q 1169 -91 856 284 
Q 544 659 544 1381 
z
M 1991 3584 
L 1991 3584 
z
" transform="scale(0.015625)"/>
       <path id="DejaVuSans-73" d="M 2834 3397 
L 2834 2853 
Q 2591 2978 2328 3040 
Q 2066 3103 1784 3103 
Q 1356 3103 1142 2972 
Q 928 2841 928 2578 
Q 928 2378 1081 2264 
Q 1234 2150 1697 2047 
L 1894 2003 
Q 2506 1872 2764 1633 
Q 3022 1394 3022 966 
Q 3022 478 2636 193 
Q 2250 -91 1575 -91 
Q 1294 -91 989 -36 
Q 684 19 347 128 
L 347 722 
Q 666 556 975 473 
Q 1284 391 1588 391 
Q 1994 391 2212 530 
Q 2431 669 2431 922 
Q 2431 1156 2273 1281 
Q 2116 1406 1581 1522 
L 1381 1569 
Q 847 1681 609 1914 
Q 372 2147 372 2553 
Q 372 3047 722 3315 
Q 1072 3584 1716 3584 
Q 2034 3584 2315 3537 
Q 2597 3491 2834 3397 
z
" transform="scale(0.015625)"/>
       <path id="DejaVuSans-29" d="M 513 4856 
L 1013 4856 
Q 1481 4119 1714 3412 
Q 1947 2706 1947 2009 
Q 1947 1309 1714 600 
Q 1481 -109 1013 -844 
L 513 -844 
Q 928 -128 1133 580 
Q 1338 1288 1338 2009 
Q 1338 2731 1133 3434 
Q 928 4138 513 4856 
z
" transform="scale(0.015625)"/>
      </defs>
      <use xlink:href="#DejaVuSans-54"/>
      <use xlink:href="#DejaVuSans-72" transform="translate(46.333984 0)"/>
      <use xlink:href="#DejaVuSans-61" transform="translate(87.447266 0)"/>
      <use xlink:href="#DejaVuSans-76" transform="translate(148.726562 0)"/>
      <use xlink:href="#DejaVuSans-65" transform="translate(207.90625 0)"/>
      <use xlink:href="#DejaVuSans-6c" transform="translate(269.429688 0)"/>
      <use xlink:href="#DejaVuSans-20" transform="translate(297.212891 0)"/>
      <use xlink:href="#DejaVuSans-74" transform="translate(329 0)"/>
      <use xlink:href="#DejaVuSans-69" transform="translate(368.208984 0)"/>
      <use xlink:href="#DejaVuSans-6d" transform="translate(395.992188 0)"/>
      <use xlink:href="#DejaVuSans-65" transform="translate(493.404297 0)"/>
      <use xlink:href="#DejaVuSans-20" transform="translate(554.927734 0)"/>
      <use xlink:href="#DejaVuSans-28" transform="translate(586.714844 0)"/>
      <use xlink:href="#DejaVuSans-6d" transform="translate(625.728516 0)"/>
      <use xlink:href="#DejaVuSans-69" transform="translate(723.140625 0)"/>
      <use xlink:href="#DejaVuSans-6e" transform="translate(750.923828 0)"/>
      <use xlink:href="#DejaVuSans-75" transform="translate(814.302734 0)"/>
      <use xlink:href="#DejaVuSans-74" transform="translate(877.681641 0)"/>
      <use xlink:href="#DejaVuSans-65" transform="translate(916.890625 0)"/>
      <use xlink:href="#DejaVuSans-73" transform="translate(978.414062 0)"/>
      <use xlink:href="#DejaVuSans-29" transform="translate(1030.513672 0)"/>
     </g>
    </g>
   </g>
   <g id="matplotlib.axis_2">
    <g id="ytick_1">
     <g id="line2d_13">
      <path d="M 57.17 373.533057 
L 703.977273 373.533057 
" clip-path="url(#pf33c756fb3)" style="fill: none; stroke: #b0b0b0; stroke-opacity: 0.25; stroke-width: 0.8; stroke-linecap: square"/>
     </g>
     <g id="line2d_14">
      <defs>
       <path id="m09b6d0a836" d="M 0 0 
L -3.5 0 
" style="stroke: #000000; stroke-width: 0.8"/>
      </defs>
      <g>
       <use xlink:href="#m09b6d0a836" x="57.17" y="373.533057" style="stroke: #000000; stroke-width: 0.8"/>
      </g>
     </g>
     <g id="text_8">
      <!-- 0 -->
      <g transform="translate(43.8075 377.332276) scale(0.1 -0.1)">
       <use xlink:href="#DejaVuSans-30"/>
      </g>
     </g>
    </g>
    <g id="ytick_2">
     <g id="line2d_15">
      <path d="M 57.17 307.5039 
L 703.977273 307.5039 
" clip-path="url(#pf33c756fb3)" style="fill: none; stroke: #b0b0b0; stroke-opacity: 0.25; stroke-width: 0.8; stroke-linecap: square"/>
     </g>
     <g id="line2d_16">
      <g>
       <use xlink:href="#m09b6d0a836" x="57.17" y="307.5039" style="stroke: #000000; stroke-width: 0.8"/>
      </g>
     </g>
     <g id="text_9">
      <!-- 200 -->
      <g transform="translate(31.0825 311.303119) scale(0.1 -0.1)">
       <use xlink:href="#DejaVuSans-32"/>
       <use xlink:href="#DejaVuSans-30" transform="translate(63.623047 0)"/>
       <use xlink:href="#DejaVuSans-30" transform="translate(127.246094 0)"/>
      </g>
     </g>
    </g>
    <g id="ytick_3">
     <g id="line2d_17">
      <path d="M 57.17 241.474744 
L 703.977273 241.474744 
" clip-path="url(#pf33c756fb3)" style="fill: none; stroke: #b0b0b0; stroke-opacity: 0.25; stroke-width: 0.8; stroke-linecap: square"/>
     </g>
     <g id="line2d_18">
      <g>
       <use xlink:href="#m09b6d0a836" x="57.17" y="241.474744" style="stroke: #000000; stroke-width: 0.8"/>
      </g>
     </g>
     <g id="text_10">
      <!-- 400 -->
      <g transform="translate(31.0825 245.273962) scale(0.1 -0.1)">
       <defs>
        <path id="DejaVuSans-34" d="M 2419 4116 
L 825 1625 
L 2419 1625 
L 2419 4116 
z
M 2253 4666 
L 3047 4666 
L 3047 1625 
L 3713 1625 
L 3713 1100 
L 3047 1100 
L 3047 0 
L 2419 0 
L 2419 1100 
L 313 1100 
L 313 1709 
L 2253 4666 
z
" transform="scale(0.015625)"/>
       </defs>
       <use xlink:href="#DejaVuSans-34"/>
       <use xlink:href="#DejaVuSans-30" transform="translate(63.623047 0)"/>
       <use xlink:href="#DejaVuSans-30" transform="translate(127.246094 0)"/>
      </g>
     </g>
    </g>
    <g id="ytick_4">
     <g id="line2d_19">
      <path d="M 57.17 175.445587 
L 703.977273 175.445587 
" clip-path="url(#pf33c756fb3)" style="fill: none; stroke: #b0b0b0; stroke-opacity: 0.25; stroke-width: 0.8; stroke-linecap: square"/>
     </g>
     <g id="line2d_20">
      <g>
       <use xlink:href="#m09b6d0a836" x="57.17" y="175.445587" style="stroke: #000000; stroke-width: 0.8"/>
      </g>
     </g>
     <g id="text_11">
      <!-- 600 -->
      <g transform="translate(31.0825 179.244805) scale(0.1 -0.1)">
       <defs>
        <path id="DejaVuSans-36" d="M 2113 2584 
Q 1688 2584 1439 2293 
Q 1191 2003 1191 1497 
Q 1191 994 1439 701 
Q 1688 409 2113 409 
Q 2538 409 2786 701 
Q 3034 994 3034 1497 
Q 3034 2003 2786 2293 
Q 2538 2584 2113 2584 
z
M 3366 4563 
L 3366 3988 
Q 3128 4100 2886 4159 
Q 2644 4219 2406 4219 
Q 1781 4219 1451 3797 
Q 1122 3375 1075 2522 
Q 1259 2794 1537 2939 
Q 1816 3084 2150 3084 
Q 2853 3084 3261 2657 
Q 3669 2231 3669 1497 
Q 3669 778 3244 343 
Q 2819 -91 2113 -91 
Q 1303 -91 875 529 
Q 447 1150 447 2328 
Q 447 3434 972 4092 
Q 1497 4750 2381 4750 
Q 2619 4750 2861 4703 
Q 3103 4656 3366 4563 
z
" transform="scale(0.015625)"/>
       </defs>
       <use xlink:href="#DejaVuSans-36"/>
       <use xlink:href="#DejaVuSans-30" transform="translate(63.623047 0)"/>
       <use xlink:href="#DejaVuSans-30" transform="translate(127.246094 0)"/>
      </g>
     </g>
    </g>
    <g id="ytick_5">
     <g id="line2d_21">
      <path d="M 57.17 109.41643 
L 703.977273 109.41643 
" clip-path="url(#pf33c756fb3)" style="fill: none; stroke: #b0b0b0; stroke-opacity: 0.25; stroke-width: 0.8; stroke-linecap: square"/>
     </g>
     <g id="line2d_22">
      <g>
       <use xlink:href="#m09b6d0a836" x="57.17" y="109.41643" style="stroke: #000000; stroke-width: 0.8"/>
      </g>
     </g>
     <g id="text_12">
      <!-- 800 -->
      <g transform="translate(31.0825 113.215648) scale(0.1 -0.1)">
       <defs>
        <path id="DejaVuSans-38" d="M 2034 2216 
Q 1584 2216 1326 1975 
Q 1069 1734 1069 1313 
Q 1069 891 1326 650 
Q 1584 409 2034 409 
Q 2484 409 2743 651 
Q 3003 894 3003 1313 
Q 3003 1734 2745 1975 
Q 2488 2216 2034 2216 
z
M 1403 2484 
Q 997 2584 770 2862 
Q 544 3141 544 3541 
Q 544 4100 942 4425 
Q 1341 4750 2034 4750 
Q 2731 4750 3128 4425 
Q 3525 4100 3525 3541 
Q 3525 3141 3298 2862 
Q 3072 2584 2669 2484 
Q 3125 2378 3379 2068 
Q 3634 1759 3634 1313 
Q 3634 634 3220 271 
Q 2806 -91 2034 -91 
Q 1263 -91 848 271 
Q 434 634 434 1313 
Q 434 1759 690 2068 
Q 947 2378 1403 2484 
z
M 1172 3481 
Q 1172 3119 1398 2916 
Q 1625 2713 2034 2713 
Q 2441 2713 2670 2916 
Q 2900 3119 2900 3481 
Q 2900 3844 2670 4047 
Q 2441 4250 2034 4250 
Q 1625 4250 1398 4047 
Q 1172 3844 1172 3481 
z
" transform="scale(0.015625)"/>
       </defs>
       <use xlink:href="#DejaVuSans-38"/>
       <use xlink:href="#DejaVuSans-30" transform="translate(63.623047 0)"/>
       <use xlink:href="#DejaVuSans-30" transform="translate(127.246094 0)"/>
      </g>
     </g>
    </g>
    <g id="ytick_6">
     <g id="line2d_23">
      <path d="M 57.17 43.387273 
L 703.977273 43.387273 
" clip-path="url(#pf33c756fb3)" style="fill: none; stroke: #b0b0b0; stroke-opacity: 0.25; stroke-width: 0.8; stroke-linecap: square"/>
     </g>
     <g id="line2d_24">
      <g>
       <use xlink:href="#m09b6d0a836" x="57.17" y="43.387273" style="stroke: #000000; stroke-width: 0.8"/>
      </g>
     </g>
     <g id="text_13">
      <!-- 1000 -->
      <g transform="translate(24.72 47.186491) scale(0.1 -0.1)">
       <use xlink:href="#DejaVuSans-31"/>
       <use xlink:href="#DejaVuSans-30" transform="translate(63.623047 0)"/>
       <use xlink:href="#DejaVuSans-30" transform="translate(127.246094 0)"/>
       <use xlink:href="#DejaVuSans-30" transform="translate(190.869141 0)"/>
      </g>
     </g>
    </g>
    <g id="text_14">
     <!-- Reachable population (millions) -->
     <g transform="translate(18.640313 287.417812) rotate(-90) scale(0.1 -0.1)">
      <defs>
       <path id="DejaVuSans-52" d="M 2841 2188 
Q 3044 2119 3236 1894 
Q 3428 1669 3622 1275 
L 4263 0 
L 3584 0 
L 2988 1197 
Q 2756 1666 2539 1819 
Q 2322 1972 1947 1972 
L 1259 1972 
L 1259 0 
L 628 0 
L 628 4666 
L 2053 4666 
Q 2853 4666 3247 4331 
Q 3641 3997 3641 3322 
Q 3641 2881 3436 2590 
Q 3231 2300 2841 2188 
z
M 1259 4147 
L 1259 2491 
L 2053 2491 
Q 2509 2491 2742 2702 
Q 2975 2913 2975 3322 
Q 2975 3731 2742 3939 
Q 2509 4147 2053 4147 
L 1259 4147 
z
" transform="scale(0.015625)"/>
       <path id="DejaVuSans-63" d="M 3122 3366 
L 3122 2828 
Q 2878 2963 2633 3030 
Q 2388 3097 2138 3097 
Q 1578 3097 1268 2742 
Q 959 2388 959 1747 
Q 959 1106 1268 751 
Q 1578 397 2138 397 
Q 2388 397 2633 464 
Q 2878 531 3122 666 
L 3122 134 
Q 2881 22 2623 -34 
Q 2366 -91 2075 -91 
Q 1284 -91 818 406 
Q 353 903 353 1747 
Q 353 2603 823 3093 
Q 1294 3584 2113 3584 
Q 2378 3584 2631 3529 
Q 2884 3475 3122 3366 
z
" transform="scale(0.015625)"/>
       <path id="DejaVuSans-68" d="M 3513 2113 
L 3513 0 
L 2938 0 
L 2938 2094 
Q 2938 2591 2744 2837 
Q 2550 3084 2163 3084 
Q 1697 3084 1428 2787 
Q 1159 2491 1159 1978 
L 1159 0 
L 581 0 
L 581 4863 
L 1159 4863 
L 1159 2956 
Q 1366 3272 1645 3428 
Q 1925 3584 2291 3584 
Q 2894 3584 3203 3211 
Q 3513 2838 3513 2113 
z
" transform="scale(0.015625)"/>
       <path id="DejaVuSans-62" d="M 3116 1747 
Q 3116 2381 2855 2742 
Q 2594 3103 2138 3103 
Q 1681 3103 1420 2742 
Q 1159 2381 1159 1747 
Q 1159 1113 1420 752 
Q 1681 391 2138 391 
Q 2594 391 2855 752 
Q 3116 1113 3116 1747 
z
M 1159 2969 
Q 1341 3281 1617 3432 
Q 1894 3584 2278 3584 
Q 2916 3584 3314 3078 
Q 3713 2572 3713 1747 
Q 3713 922 3314 415 
Q 2916 -91 2278 -91 
Q 1894 -91 1617 61 
Q 1341 213 1159 525 
L 1159 0 
L 581 0 
L 581 4863 
L 1159 4863 
L 1159 2969 
z
" transform="scale(0.015625)"/>
       <path id="DejaVuSans-70" d="M 1159 525 
L 1159 -1331 
L 581 -1331 
L 581 3500 
L 1159 3500 
L 1159 2969 
Q 1341 3281 1617 3432 
Q 1894 3584 2278 3584 
Q 2916 3584 3314 3078 
Q 3713 2572 3713 1747 
Q 3713 922 3314 415 
Q 2916 -91 2278 -91 
Q 1894 -91 1617 61 
Q 1341 213 1159 525 
z
M 3116 1747 
Q 3116 2381 2855 2742 
Q 2594 3103 2138 3103 
Q 1681 3103 1420 2742 
Q 1159 2381 1159 1747 
Q 1159 1113 1420 752 
Q 1681 391 2138 391 
Q 2594 391 2855 752 
Q 3116 1113 3116 1747 
z
" transform="scale(0.015625)"/>
       <path id="DejaVuSans-6f" d="M 1959 3097 
Q 1497 3097 1228 2736 
Q 959 2375 959 1747 
Q 959 1119 1226 758 
Q 1494 397 1959 397 
Q 2419 397 2687 759 
Q 2956 1122 2956 1747 
Q 2956 2369 2687 2733 
Q 2419 3097 1959 3097 
z
M 1959 3584 
Q 2709 3584 3137 3096 
Q 3566 2609 3566 1747 
Q 3566 888 3137 398 
Q 2709 -91 1959 -91 
Q 1206 -91 779 398 
Q 353 888 353 1747 
Q 353 2609 779 3096 
Q 1206 3584 1959 3584 
z
" transform="scale(0.015625)"/>
      </defs>
      <use xlink:href="#DejaVuSans-52"/>
      <use xlink:href="#DejaVuSans-65" transform="translate(64.982422 0)"/>
      <use xlink:href="#DejaVuSans-61" transform="translate(126.505859 0)"/>
      <use xlink:href="#DejaVuSans-63" transform="translate(187.785156 0)"/>
      <use xlink:href="#DejaVuSans-68" transform="translate(242.765625 0)"/>
      <use xlink:href="#DejaVuSans-61" transform="translate(306.144531 0)"/>
      <use xlink:href="#DejaVuSans-62" transform="translate(367.423828 0)"/>
      <use xlink:href="#DejaVuSans-6c" transform="translate(430.900391 0)"/>
      <use xlink:href="#DejaVuSans-65" transform="translate(458.683594 0)"/>
      <use xlink:href="#DejaVuSans-20" transform="translate(520.207031 0)"/>
      <use xlink:href="#DejaVuSans-70" transform="translate(551.994141 0)"/>
      <use xlink:href="#DejaVuSans-6f" transform="translate(615.470703 0)"/>
      <use xlink:href="#DejaVuSans-70" transform="translate(676.652344 0)"/>
      <use xlink:href="#DejaVuSans-75" transform="translate(740.128906 0)"/>
      <use xlink:href="#DejaVuSans-6c" transform="translate(803.507812 0)"/>
      <use xlink:href="#DejaVuSans-61" transform="translate(831.291016 0)"/>
      <use xlink:href="#DejaVuSans-74" transform="translate(892.570312 0)"/>
      <use xlink:href="#DejaVuSans-69" transform="translate(931.779297 0)"/>
      <use xlink:href="#DejaVuSans-6f" transform="translate(959.5625 0)"/>
      <use xlink:href="#DejaVuSans-6e" transform="translate(1020.744141 0)"/>
      <use xlink:href="#DejaVuSans-20" transform="translate(1084.123047 0)"/>
      <use xlink:href="#DejaVuSans-28" transform="translate(1115.910156 0)"/>
      <use xlink:href="#DejaVuSans-6d" transform="translate(1154.923828 0)"/>
      <use xlink:href="#DejaVuSans-69" transform="translate(1252.335938 0)"/>
      <use xlink:href="#DejaVuSans-6c" transform="translate(1280.119141 0)"/>
      <use xlink:href="#DejaVuSans-6c" transform="translate(1307.902344 0)"/>
      <use xlink:href="#DejaVuSans-69" transform="translate(1335.685547 0)"/>
      <use xlink:href="#DejaVuSans-6f" transform="translate(1363.46875 0)"/>
      <use xlink:href="#DejaVuSans-6e" transform="translate(1424.650391 0)"/>
      <use xlink:href="#DejaVuSans-73" transform="translate(1488.029297 0)"/>
      <use xlink:href="#DejaVuSans-29" transform="translate(1540.128906 0)"/>
     </g>
    </g>
   </g>
   <g id="line2d_25">
    <path d="M 86.570331 373.532727 
L 98.820468 373.532727 
L 111.070606 373.51688 
L 123.320744 373.391095 
L 135.570882 373.072834 
L 147.821019 371.402957 
L 160.071157 367.472571 
L 172.321295 357.313325 
L 184.571433 341.120995 
L 196.82157 308.939374 
L 209.071708 271.823065 
L 221.321846 220.317681 
L 233.571983 173.495085 
L 245.822121 121.922352 
L 258.072259 91.850033 
L 270.322397 63.605401 
L 282.572534 51.820517 
L 294.822672 45.383994 
L 307.07281 43.421608 
L 319.322948 43.387273 
L 331.573085 43.387273 
L 343.823223 43.387273 
L 356.073361 43.387273 
L 368.323499 43.387273 
L 380.573636 43.387273 
L 392.823774 43.387273 
L 405.073912 43.387273 
L 417.32405 43.387273 
L 429.574187 43.387273 
L 441.824325 43.387273 
L 454.074463 43.387273 
L 466.324601 43.387273 
L 478.574738 43.387273 
L 490.824876 43.387273 
L 503.075014 43.387273 
L 515.325152 43.387273 
L 527.575289 43.387273 
L 539.825427 43.387273 
L 552.075565 43.387273 
L 564.325702 43.387273 
L 576.57584 43.387273 
L 588.825978 43.387273 
L 601.076116 43.387273 
L 613.326253 43.387273 
L 625.576391 43.387273 
L 637.826529 43.387273 
L 650.076667 43.387273 
L 662.326804 43.387273 
L 674.576942 43.387273 
" clip-path="url(#pf33c756fb3)" style="fill: none; stroke: #005f73; stroke-width: 2.5; stroke-linecap: square"/>
   </g>
   <g id="line2d_26">
    <path d="M 86.570331 373.529756 
L 98.820468 373.529756 
L 111.070606 373.529756 
L 123.320744 373.509947 
L 135.570882 373.391095 
L 147.821019 373.173199 
L 160.071157 371.806395 
L 172.321295 370.769737 
L 184.571433 363.14337 
L 196.82157 354.879821 
L 209.071708 339.257322 
L 221.321846 303.984546 
L 233.571983 282.353395 
L 245.822121 222.227244 
L 258.072259 185.528239 
L 270.322397 141.71129 
L 282.572534 93.417565 
L 294.822672 80.581497 
L 307.07281 52.661068 
L 319.322948 48.329555 
L 331.573085 43.849477 
L 343.823223 43.387273 
L 356.073361 43.387273 
L 368.323499 43.387273 
L 380.573636 43.387273 
L 392.823774 43.387273 
L 405.073912 43.387273 
L 417.32405 43.387273 
L 429.574187 43.387273 
L 441.824325 43.387273 
L 454.074463 43.387273 
L 466.324601 43.387273 
L 478.574738 43.387273 
L 490.824876 43.387273 
L 503.075014 43.387273 
L 515.325152 43.387273 
L 527.575289 43.387273 
L 539.825427 43.387273 
L 552.075565 43.387273 
L 564.325702 43.387273 
L 576.57584 43.387273 
L 588.825978 43.387273 
L 601.076116 43.387273 
L 613.326253 43.387273 
L 625.576391 43.387273 
L 637.826529 43.387273 
L 650.076667 43.387273 
L 662.326804 43.387273 
L 674.576942 43.387273 
" clip-path="url(#pf33c756fb3)" style="fill: none; stroke: #ae2012; stroke-width: 2.5; stroke-linecap: square"/>
   </g>
   <g id="patch_3">
    <path d="M 57.17 390.04 
L 57.17 26.88 
" style="fill: none; stroke: #000000; stroke-width: 0.8; stroke-linejoin: miter; stroke-linecap: square"/>
   </g>
   <g id="patch_4">
    <path d="M 703.977273 390.04 
L 703.977273 26.88 
" style="fill: none; stroke: #000000; stroke-width: 0.8; stroke-linejoin: miter; stroke-linecap: square"/>
   </g>
   <g id="patch_5">
    <path d="M 57.17 390.04 
L 703.977273 390.04 
" style="fill: none; stroke: #000000; stroke-width: 0.8; stroke-linejoin: miter; stroke-linecap: square"/>
   </g>
   <g id="patch_6">
    <path d="M 57.17 26.88 
L 703.977273 26.88 
" style="fill: none; stroke: #000000; stroke-width: 0.8; stroke-linejoin: miter; stroke-linecap: square"/>
   </g>
   <g id="text_15">
    <!-- Reachable Population vs Time for 1-Billion-Person Space Cities -->
    <g transform="translate(193.560199 20.88) scale(0.12 -0.12)">
     <defs>
      <path id="DejaVuSans-50" d="M 1259 4147 
L 1259 2394 
L 2053 2394 
Q 2494 2394 2734 2622 
Q 2975 2850 2975 3272 
Q 2975 3691 2734 3919 
Q 2494 4147 2053 4147 
L 1259 4147 
z
M 628 4666 
L 2053 4666 
Q 2838 4666 3239 4311 
Q 3641 3956 3641 3272 
Q 3641 2581 3239 2228 
Q 2838 1875 2053 1875 
L 1259 1875 
L 1259 0 
L 628 0 
L 628 4666 
z
" transform="scale(0.015625)"/>
      <path id="DejaVuSans-66" d="M 2375 4863 
L 2375 4384 
L 1825 4384 
Q 1516 4384 1395 4259 
Q 1275 4134 1275 3809 
L 1275 3500 
L 2222 3500 
L 2222 3053 
L 1275 3053 
L 1275 0 
L 697 0 
L 697 3053 
L 147 3053 
L 147 3500 
L 697 3500 
L 697 3744 
Q 697 4328 969 4595 
Q 1241 4863 1831 4863 
L 2375 4863 
z
" transform="scale(0.015625)"/>
      <path id="DejaVuSans-2d" d="M 313 2009 
L 1997 2009 
L 1997 1497 
L 313 1497 
L 313 2009 
z
" transform="scale(0.015625)"/>
      <path id="DejaVuSans-42" d="M 1259 2228 
L 1259 519 
L 2272 519 
Q 2781 519 3026 730 
Q 3272 941 3272 1375 
Q 3272 1813 3026 2020 
Q 2781 2228 2272 2228 
L 1259 2228 
z
M 1259 4147 
L 1259 2741 
L 2194 2741 
Q 2656 2741 2882 2914 
Q 3109 3088 3109 3444 
Q 3109 3797 2882 3972 
Q 2656 4147 2194 4147 
L 1259 4147 
z
M 628 4666 
L 2241 4666 
Q 2963 4666 3353 4366 
Q 3744 4066 3744 3513 
Q 3744 3084 3544 2831 
Q 3344 2578 2956 2516 
Q 3422 2416 3680 2098 
Q 3938 1781 3938 1306 
Q 3938 681 3513 340 
Q 3088 0 2303 0 
L 628 0 
L 628 4666 
z
" transform="scale(0.015625)"/>
      <path id="DejaVuSans-53" d="M 3425 4513 
L 3425 3897 
Q 3066 4069 2747 4153 
Q 2428 4238 2131 4238 
Q 1616 4238 1336 4038 
Q 1056 3838 1056 3469 
Q 1056 3159 1242 3001 
Q 1428 2844 1947 2747 
L 2328 2669 
Q 3034 2534 3370 2195 
Q 3706 1856 3706 1288 
Q 3706 609 3251 259 
Q 2797 -91 1919 -91 
Q 1588 -91 1214 -16 
Q 841 59 441 206 
L 441 856 
Q 825 641 1194 531 
Q 1563 422 1919 422 
Q 2459 422 2753 634 
Q 3047 847 3047 1241 
Q 3047 1584 2836 1778 
Q 2625 1972 2144 2069 
L 1759 2144 
Q 1053 2284 737 2584 
Q 422 2884 422 3419 
Q 422 4038 858 4394 
Q 1294 4750 2059 4750 
Q 2388 4750 2728 4690 
Q 3069 4631 3425 4513 
z
" transform="scale(0.015625)"/>
      <path id="DejaVuSans-43" d="M 4122 4306 
L 4122 3641 
Q 3803 3938 3442 4084 
Q 3081 4231 2675 4231 
Q 1875 4231 1450 3742 
Q 1025 3253 1025 2328 
Q 1025 1406 1450 917 
Q 1875 428 2675 428 
Q 3081 428 3442 575 
Q 3803 722 4122 1019 
L 4122 359 
Q 3791 134 3420 21 
Q 3050 -91 2638 -91 
Q 1578 -91 968 557 
Q 359 1206 359 2328 
Q 359 3453 968 4101 
Q 1578 4750 2638 4750 
Q 3056 4750 3426 4639 
Q 3797 4528 4122 4306 
z
" transform="scale(0.015625)"/>
     </defs>
     <use xlink:href="#DejaVuSans-52"/>
     <use xlink:href="#DejaVuSans-65" transform="translate(64.982422 0)"/>
     <use xlink:href="#DejaVuSans-61" transform="translate(126.505859 0)"/>
     <use xlink:href="#DejaVuSans-63" transform="translate(187.785156 0)"/>
     <use xlink:href="#DejaVuSans-68" transform="translate(242.765625 0)"/>
     <use xlink:href="#DejaVuSans-61" transform="translate(306.144531 0)"/>
     <use xlink:href="#DejaVuSans-62" transform="translate(367.423828 0)"/>
     <use xlink:href="#DejaVuSans-6c" transform="translate(430.900391 0)"/>
     <use xlink:href="#DejaVuSans-65" transform="translate(458.683594 0)"/>
     <use xlink:href="#DejaVuSans-20" transform="translate(520.207031 0)"/>
     <use xlink:href="#DejaVuSans-50" transform="translate(551.994141 0)"/>
     <use xlink:href="#DejaVuSans-6f" transform="translate(608.671875 0)"/>
     <use xlink:href="#DejaVuSans-70" transform="translate(669.853516 0)"/>
     <use xlink:href="#DejaVuSans-75" transform="translate(733.330078 0)"/>
     <use xlink:href="#DejaVuSans-6c" transform="translate(796.708984 0)"/>
     <use xlink:href="#DejaVuSans-61" transform="translate(824.492188 0)"/>
     <use xlink:href="#DejaVuSans-74" transform="translate(885.771484 0)"/>
     <use xlink:href="#DejaVuSans-69" transform="translate(924.980469 0)"/>
     <use xlink:href="#DejaVuSans-6f" transform="translate(952.763672 0)"/>
     <use xlink:href="#DejaVuSans-6e" transform="translate(1013.945312 0)"/>
     <use xlink:href="#DejaVuSans-20" transform="translate(1077.324219 0)"/>
     <use xlink:href="#DejaVuSans-76" transform="translate(1109.111328 0)"/>
     <use xlink:href="#DejaVuSans-73" transform="translate(1168.291016 0)"/>
     <use xlink:href="#DejaVuSans-20" transform="translate(1220.390625 0)"/>
     <use xlink:href="#DejaVuSans-54" transform="translate(1252.177734 0)"/>
     <use xlink:href="#DejaVuSans-69" transform="translate(1310.136719 0)"/>
     <use xlink:href="#DejaVuSans-6d" transform="translate(1337.919922 0)"/>
     <use xlink:href="#DejaVuSans-65" transform="translate(1435.332031 0)"/>
     <use xlink:href="#DejaVuSans-20" transform="translate(1496.855469 0)"/>
     <use xlink:href="#DejaVuSans-66" transform="translate(1528.642578 0)"/>
     <use xlink:href="#DejaVuSans-6f" transform="translate(1563.847656 0)"/>
     <use xlink:href="#DejaVuSans-72" transform="translate(1625.029297 0)"/>
     <use xlink:href="#DejaVuSans-20" transform="translate(1666.142578 0)"/>
     <use xlink:href="#DejaVuSans-31" transform="translate(1697.929688 0)"/>
     <use xlink:href="#DejaVuSans-2d" transform="translate(1761.552734 0)"/>
     <use xlink:href="#DejaVuSans-42" transform="translate(1794.011719 0)"/>
     <use xlink:href="#DejaVuSans-69" transform="translate(1862.615234 0)"/>
     <use xlink:href="#DejaVuSans-6c" transform="translate(1890.398438 0)"/>
     <use xlink:href="#DejaVuSans-6c" transform="translate(1918.181641 0)"/>
     <use xlink:href="#DejaVuSans-69" transform="translate(1945.964844 0)"/>
     <use xlink:href="#DejaVuSans-6f" transform="translate(1973.748047 0)"/>
     <use xlink:href="#DejaVuSans-6e" transform="translate(2034.929688 0)"/>
     <use xlink:href="#DejaVuSans-2d" transform="translate(2098.308594 0)"/>
     <use xlink:href="#DejaVuSans-50" transform="translate(2134.392578 0)"/>
     <use xlink:href="#DejaVuSans-65" transform="translate(2191.070312 0)"/>
     <use xlink:href="#DejaVuSans-72" transform="translate(2252.59375 0)"/>
     <use xlink:href="#DejaVuSans-73" transform="translate(2293.707031 0)"/>
     <use xlink:href="#DejaVuSans-6f" transform="translate(2345.806641 0)"/>
     <use xlink:href="#DejaVuSans-6e" transform="translate(2406.988281 0)"/>
     <use xlink:href="#DejaVuSans-20" transform="translate(2470.367188 0)"/>
     <use xlink:href="#DejaVuSans-53" transform="translate(2502.154297 0)"/>
     <use xlink:href="#DejaVuSans-70" transform="translate(2565.630859 0)"/>
     <use xlink:href="#DejaVuSans-61" transform="translate(2629.107422 0)"/>
     <use xlink:href="#DejaVuSans-63" transform="translate(2690.386719 0)"/>
     <use xlink:href="#DejaVuSans-65" transform="translate(2745.367188 0)"/>
     <use xlink:href="#DejaVuSans-20" transform="translate(2806.890625 0)"/>
     <use xlink:href="#DejaVuSans-43" transform="translate(2838.677734 0)"/>
     <use xlink:href="#DejaVuSans-69" transform="translate(2908.501953 0)"/>
     <use xlink:href="#DejaVuSans-74" transform="translate(2936.285156 0)"/>
     <use xlink:href="#DejaVuSans-69" transform="translate(2975.494141 0)"/>
     <use xlink:href="#DejaVuSans-65" transform="translate(3003.277344 0)"/>
     <use xlink:href="#DejaVuSans-73" transform="translate(3064.800781 0)"/>
    </g>
   </g>
   <g id="legend_1">
    <g id="line2d_27">
     <path d="M 66.17 39.978437 
L 76.17 39.978437 
L 86.17 39.978437 
" style="fill: none; stroke: #005f73; stroke-width: 2.5; stroke-linecap: square"/>
    </g>
    <g id="text_16">
     <!-- gravity wheels in atmosphere -->
     <g transform="translate(94.17 43.478437) scale(0.1 -0.1)">
      <defs>
       <path id="DejaVuSans-67" d="M 2906 1791 
Q 2906 2416 2648 2759 
Q 2391 3103 1925 3103 
Q 1463 3103 1205 2759 
Q 947 2416 947 1791 
Q 947 1169 1205 825 
Q 1463 481 1925 481 
Q 2391 481 2648 825 
Q 2906 1169 2906 1791 
z
M 3481 434 
Q 3481 -459 3084 -895 
Q 2688 -1331 1869 -1331 
Q 1566 -1331 1297 -1286 
Q 1028 -1241 775 -1147 
L 775 -588 
Q 1028 -725 1275 -790 
Q 1522 -856 1778 -856 
Q 2344 -856 2625 -561 
Q 2906 -266 2906 331 
L 2906 616 
Q 2728 306 2450 153 
Q 2172 0 1784 0 
Q 1141 0 747 490 
Q 353 981 353 1791 
Q 353 2603 747 3093 
Q 1141 3584 1784 3584 
Q 2172 3584 2450 3431 
Q 2728 3278 2906 2969 
L 2906 3500 
L 3481 3500 
L 3481 434 
z
" transform="scale(0.015625)"/>
       <path id="DejaVuSans-79" d="M 2059 -325 
Q 1816 -950 1584 -1140 
Q 1353 -1331 966 -1331 
L 506 -1331 
L 506 -850 
L 844 -850 
Q 1081 -850 1212 -737 
Q 1344 -625 1503 -206 
L 1606 56 
L 191 3500 
L 800 3500 
L 1894 763 
L 2988 3500 
L 3597 3500 
L 2059 -325 
z
" transform="scale(0.015625)"/>
       <path id="DejaVuSans-77" d="M 269 3500 
L 844 3500 
L 1563 769 
L 2278 3500 
L 2956 3500 
L 3675 769 
L 4391 3500 
L 4966 3500 
L 4050 0 
L 3372 0 
L 2619 2869 
L 1863 0 
L 1184 0 
L 269 3500 
z
" transform="scale(0.015625)"/>
      </defs>
      <use xlink:href="#DejaVuSans-67"/>
      <use xlink:href="#DejaVuSans-72" transform="translate(63.476562 0)"/>
      <use xlink:href="#DejaVuSans-61" transform="translate(104.589844 0)"/>
      <use xlink:href="#DejaVuSans-76" transform="translate(165.869141 0)"/>
      <use xlink:href="#DejaVuSans-69" transform="translate(225.048828 0)"/>
      <use xlink:href="#DejaVuSans-74" transform="translate(252.832031 0)"/>
      <use xlink:href="#DejaVuSans-79" transform="translate(292.041016 0)"/>
      <use xlink:href="#DejaVuSans-20" transform="translate(351.220703 0)"/>
      <use xlink:href="#DejaVuSans-77" transform="translate(383.007812 0)"/>
      <use xlink:href="#DejaVuSans-68" transform="translate(464.794922 0)"/>
      <use xlink:href="#DejaVuSans-65" transform="translate(528.173828 0)"/>
      <use xlink:href="#DejaVuSans-65" transform="translate(589.697266 0)"/>
      <use xlink:href="#DejaVuSans-6c" transform="translate(651.220703 0)"/>
      <use xlink:href="#DejaVuSans-73" transform="translate(679.003906 0)"/>
      <use xlink:href="#DejaVuSans-20" transform="translate(731.103516 0)"/>
      <use xlink:href="#DejaVuSans-69" transform="translate(762.890625 0)"/>
      <use xlink:href="#DejaVuSans-6e" transform="translate(790.673828 0)"/>
      <use xlink:href="#DejaVuSans-20" transform="translate(854.052734 0)"/>
      <use xlink:href="#DejaVuSans-61" transform="translate(885.839844 0)"/>
      <use xlink:href="#DejaVuSans-74" transform="translate(947.119141 0)"/>
      <use xlink:href="#DejaVuSans-6d" transform="translate(986.328125 0)"/>
      <use xlink:href="#DejaVuSans-6f" transform="translate(1083.740234 0)"/>
      <use xlink:href="#DejaVuSans-73" transform="translate(1144.921875 0)"/>
      <use xlink:href="#DejaVuSans-70" transform="translate(1197.021484 0)"/>
      <use xlink:href="#DejaVuSans-68" transform="translate(1260.498047 0)"/>
      <use xlink:href="#DejaVuSans-65" transform="translate(1323.876953 0)"/>
      <use xlink:href="#DejaVuSans-72" transform="translate(1385.400391 0)"/>
      <use xlink:href="#DejaVuSans-65" transform="translate(1424.263672 0)"/>
     </g>
    </g>
    <g id="line2d_28">
     <path d="M 66.17 54.656563 
L 76.17 54.656563 
L 86.17 54.656563 
" style="fill: none; stroke: #ae2012; stroke-width: 2.5; stroke-linecap: square"/>
    </g>
    <g id="text_17">
     <!-- rotating habitats in vacuum -->
     <g transform="translate(94.17 58.156563) scale(0.1 -0.1)">
      <use xlink:href="#DejaVuSans-72"/>
      <use xlink:href="#DejaVuSans-6f" transform="translate(38.863281 0)"/>
      <use xlink:href="#DejaVuSans-74" transform="translate(100.044922 0)"/>
      <use xlink:href="#DejaVuSans-61" transform="translate(139.253906 0)"/>
      <use xlink:href="#DejaVuSans-74" transform="translate(200.533203 0)"/>
      <use xlink:href="#DejaVuSans-69" transform="translate(239.742188 0)"/>
      <use xlink:href="#DejaVuSans-6e" transform="translate(267.525391 0)"/>
      <use xlink:href="#DejaVuSans-67" transform="translate(330.904297 0)"/>
      <use xlink:href="#DejaVuSans-20" transform="translate(394.380859 0)"/>
      <use xlink:href="#DejaVuSans-68" transform="translate(426.167969 0)"/>
      <use xlink:href="#DejaVuSans-61" transform="translate(489.546875 0)"/>
      <use xlink:href="#DejaVuSans-62" transform="translate(550.826172 0)"/>
      <use xlink:href="#DejaVuSans-69" transform="translate(614.302734 0)"/>
      <use xlink:href="#DejaVuSans-74" transform="translate(642.085938 0)"/>
      <use xlink:href="#DejaVuSans-61" transform="translate(681.294922 0)"/>
      <use xlink:href="#DejaVuSans-74" transform="translate(742.574219 0)"/>
      <use xlink:href="#DejaVuSans-73" transform="translate(781.783203 0)"/>
      <use xlink:href="#DejaVuSans-20" transform="translate(833.882812 0)"/>
      <use xlink:href="#DejaVuSans-69" transform="translate(865.669922 0)"/>
      <use xlink:href="#DejaVuSans-6e" transform="translate(893.453125 0)"/>
      <use xlink:href="#DejaVuSans-20" transform="translate(956.832031 0)"/>
      <use xlink:href="#DejaVuSans-76" transform="translate(988.619141 0)"/>
      <use xlink:href="#DejaVuSans-61" transform="translate(1047.798828 0)"/>
      <use xlink:href="#DejaVuSans-63" transform="translate(1109.078125 0)"/>
      <use xlink:href="#DejaVuSans-75" transform="translate(1164.058594 0)"/>
      <use xlink:href="#DejaVuSans-75" transform="translate(1227.4375 0)"/>
      <use xlink:href="#DejaVuSans-6d" transform="translate(1290.816406 0)"/>
     </g>
    </g>
   </g>
  </g>
 </g>
 <defs>
  <clipPath id="pf33c756fb3">
   <rect x="57.17" y="26.88" width="646.807273" height="363.16"/>
  </clipPath>
 </defs>
</svg>
